<svg xmlns="http://www.w3.org/2000/svg" width="96" height="32"><path fill="white" d="M9.86 9.41q-.84 0-1.44-.58-.61-.57-.61-1.57 0-.99.61-1.56.6-.58 1.44-.58.86 0 1.45.58.59.57.59 1.56 0 1-.59 1.57-.59.58-1.45.58zm-.2 4.51H3.65v-2.21h8.64V26.4q0 1.54-.43 2.61-.44 1.07-1.16 1.74-.72.67-1.66.96-.94.29-2 .29-1.22 0-2.45-.26-1.23-.25-2.32-.8l.8-2.24q.8.39 1.78.66.97.27 1.87.27 1.28 0 2.11-.65.83-.66.83-2.55V13.92zM27.07 25.7v-.52q-.45.26-1.37.55-.93.29-2.15.29-1.31 0-2.45-.44-1.13-.43-1.98-1.31-.85-.88-1.34-2.24-.5-1.36-.5-3.21 0-1.64.46-3 .47-1.36 1.35-2.35.88-.99 2.16-1.55 1.28-.56 2.91-.56 1.92 0 3.28.27 1.36.27 2.29.53v13.25q0 3.45-1.75 4.99-1.74 1.54-5.26 1.54-1.44 0-2.61-.23-1.17-.22-2.06-.54l.48-2.34q.83.35 1.9.58 1.07.22 2.35.22 2.31 0 3.3-.93.99-.92.99-3zm0-2.98v-8.67q-.38-.13-1.05-.24-.68-.11-1.83-.11-2.05 0-3.12 1.4Q20 16.51 20 18.85q0 1.28.3 2.19.31.91.84 1.5.52.6 1.2.87.67.27 1.44.27.99 0 1.87-.29.88-.29 1.42-.67zm13.09 1.95q.99 0 1.78-.06.78-.07 1.29-.16v-4.42q-.51-.16-1.23-.25-.72-.1-1.52-.1-.74 0-1.44.11t-1.25.4q-.54.29-.89.75-.36.47-.36 1.17 0 1.44.98 2t2.64.56zm-.26-13.31q1.67 0 2.8.42 1.14.41 1.84 1.15.71.73 1 1.79.28 1.06.28 2.3v9.28q-.92.16-2.44.39-1.52.22-3.12.22-1.22 0-2.37-.21-1.15-.2-2.05-.73-.9-.53-1.44-1.46-.54-.93-.54-2.37 0-1.28.56-2.16.56-.88 1.44-1.42.88-.54 2.01-.78 1.14-.24 2.29-.24 1.57 0 3.07.35v-.74q0-.67-.14-1.29-.15-.63-.55-1.14-.4-.51-1.08-.82-.69-.3-1.78-.3-1.38 0-2.4.19t-1.57.39L35.39 12q.55-.26 1.81-.45t2.7-.19zm21.83.35v14.43q-.87.23-2.29.48-1.42.26-3.34.26-1.7 0-2.82-.5-1.12-.49-1.82-1.4-.71-.92-1-2.16-.28-1.25-.28-2.76v-8.35h2.62v7.78q0 2.75.82 3.9.81 1.15 2.73 1.15.42 0 .85-.03t.82-.08q.38-.05.67-.09.29-.05.38-.08V11.71h2.66zm13.5 11.14q0-.8-.65-1.31-.66-.52-1.64-.9-.97-.38-2.12-.75-1.16-.37-2.13-.91-.98-.55-1.63-1.35-.66-.8-.66-2.08 0-1.79 1.46-2.99 1.45-1.2 4.56-1.2 1.21 0 2.51.18 1.29.17 2.22.46l-.48 2.37q-.25-.13-.7-.27-.45-.15-1.03-.26-.57-.11-1.23-.18-.65-.06-1.26-.06-3.46 0-3.46 1.89 0 .67.66 1.13.65.47 1.65.85.99.39 2.14.79 1.15.4 2.14.97 1 .58 1.65 1.39.66.82.66 2.07 0 2.01-1.57 3.12-1.57 1.1-4.96 1.1-1.54 0-2.82-.25-1.28-.26-2.43-.77l.51-2.4q1.12.51 2.36.85 1.23.33 2.64.33 3.61 0 3.61-1.82zm16 0q0-.8-.65-1.31-.66-.52-1.64-.9-.97-.38-2.12-.75-1.16-.37-2.13-.91-.98-.55-1.63-1.35-.66-.8-.66-2.08 0-1.79 1.46-2.99 1.45-1.2 4.56-1.2 1.21 0 2.51.18 1.29.17 2.22.46l-.48 2.37q-.25-.13-.7-.27-.45-.15-1.03-.26-.57-.11-1.23-.18-.65-.06-1.26-.06-3.46 0-3.46 1.89 0 .67.66 1.13.65.47 1.65.85.99.39 2.14.79 1.15.4 2.14.97 1 .58 1.65 1.39.66.82.66 2.07 0 2.01-1.57 3.12-1.57 1.1-4.96 1.1-1.54 0-2.82-.25-1.28-.26-2.43-.77l.51-2.4q1.12.51 2.36.85 1.23.33 2.64.33 3.61 0 3.61-1.82z"/></svg>
